<svg width="11" height="11" viewBox="0 0 11 11" fill="none" xmlns="http://www.w3.org/2000/svg">
<path d="M4.41732 0.46005C4.70526 -0.153354 5.57773 -0.153353 5.86567 0.460051L6.8143 2.48089C6.92756 2.72215 7.15352 2.89117 7.41695 2.93165L9.60367 3.26774C10.2471 3.36663 10.5093 4.15159 10.0545 4.61735L8.42368 6.28764C8.24623 6.46939 8.16563 6.72462 8.20652 6.97532L8.58424 9.29109C8.69175 9.95024 7.99199 10.4432 7.40754 10.12L5.52863 9.08096C5.28773 8.94774 4.99526 8.94774 4.75436 9.08096L2.87545 10.12C2.291 10.4432 1.59124 9.95024 1.69875 9.29109L2.07647 6.97532C2.11736 6.72461 2.03676 6.46939 1.85931 6.28764L0.22845 4.61735C-0.226311 4.15159 0.0359253 3.36663 0.679324 3.26774L2.86604 2.93165C3.12947 2.89117 3.35543 2.72215 3.46869 2.48089L4.41732 0.46005Z" fill="#F9CA24"/>
</svg>
